<mxfile host="app.diagrams.net" agent="Mozilla/5.0 (Windows NT 10.0; Win64; x64) AppleWebKit/537.36 (KHTML, like Gecko) Chrome/130.0.0.0 Safari/537.36 Edg/130.0.0.0" version="24.8.4">
  <diagram name="Page-1" id="nyeKGoNgI4ICAkBSwUw-">
    <mxGraphModel dx="872" dy="469" grid="1" gridSize="10" guides="1" tooltips="1" connect="1" arrows="1" fold="1" page="1" pageScale="1" pageWidth="850" pageHeight="1100" math="0" shadow="0">
      <root>
        <mxCell id="0" />
        <mxCell id="1" parent="0" />
        <mxCell id="mAecj2PQC_2HCIfGibom-5" value="Tela de login" style="rounded=1;whiteSpace=wrap;html=1;" vertex="1" parent="1">
          <mxGeometry x="385" y="120" width="120" height="40" as="geometry" />
        </mxCell>
        <mxCell id="mAecj2PQC_2HCIfGibom-6" value="servidor&lt;div&gt;&lt;br&gt;&lt;/div&gt;" style="rounded=1;whiteSpace=wrap;html=1;" vertex="1" parent="1">
          <mxGeometry x="640" y="120" width="120" height="40" as="geometry" />
        </mxCell>
        <mxCell id="mAecj2PQC_2HCIfGibom-16" value="Visitar a Tela" style="edgeStyle=orthogonalEdgeStyle;rounded=0;orthogonalLoop=1;jettySize=auto;html=1;" edge="1" parent="1" source="mAecj2PQC_2HCIfGibom-12">
          <mxGeometry relative="1" as="geometry">
            <mxPoint x="450" y="320" as="targetPoint" />
          </mxGeometry>
        </mxCell>
        <mxCell id="mAecj2PQC_2HCIfGibom-19" style="edgeStyle=orthogonalEdgeStyle;rounded=0;orthogonalLoop=1;jettySize=auto;html=1;entryX=0;entryY=0.5;entryDx=0;entryDy=0;entryPerimeter=0;" edge="1" parent="1" source="mAecj2PQC_2HCIfGibom-12" target="mAecj2PQC_2HCIfGibom-21">
          <mxGeometry relative="1" as="geometry">
            <mxPoint x="170" y="440" as="targetPoint" />
            <Array as="points">
              <mxPoint x="173" y="385" />
              <mxPoint x="160" y="385" />
              <mxPoint x="160" y="435" />
            </Array>
          </mxGeometry>
        </mxCell>
        <mxCell id="mAecj2PQC_2HCIfGibom-12" value="" style="html=1;points=[];perimeter=orthogonalPerimeter;fillColor=strokeColor;" vertex="1" parent="1">
          <mxGeometry x="165" y="280" width="15" height="80" as="geometry" />
        </mxCell>
        <mxCell id="mAecj2PQC_2HCIfGibom-14" value="usuário" style="shape=umlActor;verticalLabelPosition=bottom;verticalAlign=top;html=1;outlineConnect=0;" vertex="1" parent="1">
          <mxGeometry x="157.5" y="120" width="30" height="60" as="geometry" />
        </mxCell>
        <mxCell id="mAecj2PQC_2HCIfGibom-15" style="edgeStyle=orthogonalEdgeStyle;rounded=0;orthogonalLoop=1;jettySize=auto;html=1;entryX=0.6;entryY=0.125;entryDx=0;entryDy=0;entryPerimeter=0;" edge="1" parent="1" source="mAecj2PQC_2HCIfGibom-14" target="mAecj2PQC_2HCIfGibom-12">
          <mxGeometry relative="1" as="geometry" />
        </mxCell>
        <mxCell id="mAecj2PQC_2HCIfGibom-25" value="E-mail + Hash da Senha" style="edgeStyle=orthogonalEdgeStyle;rounded=0;orthogonalLoop=1;jettySize=auto;html=1;entryX=0.2;entryY=0.525;entryDx=0;entryDy=0;entryPerimeter=0;" edge="1" parent="1" source="mAecj2PQC_2HCIfGibom-17" target="mAecj2PQC_2HCIfGibom-26">
          <mxGeometry relative="1" as="geometry">
            <mxPoint x="640" y="320" as="targetPoint" />
          </mxGeometry>
        </mxCell>
        <mxCell id="mAecj2PQC_2HCIfGibom-17" value="" style="html=1;points=[];perimeter=orthogonalPerimeter;fillColor=strokeColor;" vertex="1" parent="1">
          <mxGeometry x="440" y="280" width="10" height="80" as="geometry" />
        </mxCell>
        <mxCell id="mAecj2PQC_2HCIfGibom-21" value="Informar E-mail e Senha&lt;div&gt;&lt;br&gt;&lt;/div&gt;" style="line;strokeWidth=2;html=1;" vertex="1" parent="1">
          <mxGeometry x="180" y="410" width="260" height="50" as="geometry" />
        </mxCell>
        <mxCell id="mAecj2PQC_2HCIfGibom-23" style="edgeStyle=orthogonalEdgeStyle;rounded=0;orthogonalLoop=1;jettySize=auto;html=1;entryX=1;entryY=0.5;entryDx=0;entryDy=0;entryPerimeter=0;" edge="1" parent="1" source="mAecj2PQC_2HCIfGibom-17" target="mAecj2PQC_2HCIfGibom-21">
          <mxGeometry relative="1" as="geometry" />
        </mxCell>
        <mxCell id="mAecj2PQC_2HCIfGibom-24" style="edgeStyle=orthogonalEdgeStyle;rounded=0;orthogonalLoop=1;jettySize=auto;html=1;entryX=0.7;entryY=0.2;entryDx=0;entryDy=0;entryPerimeter=0;" edge="1" parent="1" source="mAecj2PQC_2HCIfGibom-5" target="mAecj2PQC_2HCIfGibom-17">
          <mxGeometry relative="1" as="geometry" />
        </mxCell>
        <mxCell id="mAecj2PQC_2HCIfGibom-26" value="" style="html=1;points=[];perimeter=orthogonalPerimeter;fillColor=strokeColor;" vertex="1" parent="1">
          <mxGeometry x="710" y="280" width="10" height="80" as="geometry" />
        </mxCell>
        <mxCell id="mAecj2PQC_2HCIfGibom-28" value="validar&lt;div&gt;&lt;br&gt;&lt;/div&gt;" style="edgeStyle=orthogonalEdgeStyle;rounded=0;orthogonalLoop=1;jettySize=auto;html=1;entryX=0.6;entryY=0.238;entryDx=0;entryDy=0;entryPerimeter=0;" edge="1" parent="1" source="mAecj2PQC_2HCIfGibom-6" target="mAecj2PQC_2HCIfGibom-26">
          <mxGeometry relative="1" as="geometry">
            <Array as="points">
              <mxPoint x="710" y="220" />
              <mxPoint x="716" y="220" />
            </Array>
          </mxGeometry>
        </mxCell>
        <mxCell id="mAecj2PQC_2HCIfGibom-31" value="alternativa&lt;div&gt;&lt;br&gt;&lt;/div&gt;" style="shape=umlFrame;whiteSpace=wrap;html=1;pointerEvents=0;" vertex="1" parent="1">
          <mxGeometry x="80" y="530" width="680" height="350" as="geometry" />
        </mxCell>
        <mxCell id="mAecj2PQC_2HCIfGibom-40" value="" style="line;strokeWidth=2;direction=south;html=1;" vertex="1" parent="1">
          <mxGeometry x="155" y="430" width="10" height="160" as="geometry" />
        </mxCell>
        <mxCell id="mAecj2PQC_2HCIfGibom-46" value="Exibir Mensagem de Sucesso" style="edgeStyle=orthogonalEdgeStyle;rounded=0;orthogonalLoop=1;jettySize=auto;html=1;entryX=0.5;entryY=0.538;entryDx=0;entryDy=0;entryPerimeter=0;" edge="1" parent="1" source="mAecj2PQC_2HCIfGibom-42" target="mAecj2PQC_2HCIfGibom-47">
          <mxGeometry relative="1" as="geometry">
            <mxPoint x="320" y="600" as="targetPoint" />
          </mxGeometry>
        </mxCell>
        <mxCell id="mAecj2PQC_2HCIfGibom-42" value="" style="html=1;points=[];perimeter=orthogonalPerimeter;fillColor=strokeColor;" vertex="1" parent="1">
          <mxGeometry x="155" y="560" width="15" height="80" as="geometry" />
        </mxCell>
        <mxCell id="mAecj2PQC_2HCIfGibom-48" value="Autenticação com sucesso" style="edgeStyle=orthogonalEdgeStyle;rounded=0;orthogonalLoop=1;jettySize=auto;html=1;" edge="1" parent="1" source="mAecj2PQC_2HCIfGibom-47">
          <mxGeometry relative="1" as="geometry">
            <mxPoint x="710" y="600" as="targetPoint" />
          </mxGeometry>
        </mxCell>
        <mxCell id="mAecj2PQC_2HCIfGibom-47" value="" style="html=1;points=[];perimeter=orthogonalPerimeter;fillColor=strokeColor;" vertex="1" parent="1">
          <mxGeometry x="400" y="560" width="10" height="80" as="geometry" />
        </mxCell>
        <mxCell id="mAecj2PQC_2HCIfGibom-55" style="edgeStyle=orthogonalEdgeStyle;rounded=0;orthogonalLoop=1;jettySize=auto;html=1;" edge="1" parent="1" source="mAecj2PQC_2HCIfGibom-49">
          <mxGeometry relative="1" as="geometry">
            <mxPoint x="715" y="730" as="targetPoint" />
          </mxGeometry>
        </mxCell>
        <mxCell id="mAecj2PQC_2HCIfGibom-49" value="" style="html=1;points=[];perimeter=orthogonalPerimeter;fillColor=strokeColor;" vertex="1" parent="1">
          <mxGeometry x="710" y="560" width="10" height="80" as="geometry" />
        </mxCell>
        <mxCell id="mAecj2PQC_2HCIfGibom-50" style="edgeStyle=orthogonalEdgeStyle;rounded=0;orthogonalLoop=1;jettySize=auto;html=1;entryX=0.4;entryY=0.925;entryDx=0;entryDy=0;entryPerimeter=0;" edge="1" parent="1" source="mAecj2PQC_2HCIfGibom-49" target="mAecj2PQC_2HCIfGibom-26">
          <mxGeometry relative="1" as="geometry" />
        </mxCell>
        <mxCell id="mAecj2PQC_2HCIfGibom-52" value="Limpar campos" style="edgeStyle=orthogonalEdgeStyle;rounded=0;orthogonalLoop=1;jettySize=auto;html=1;entryX=1.1;entryY=0.638;entryDx=0;entryDy=0;entryPerimeter=0;" edge="1" parent="1" source="mAecj2PQC_2HCIfGibom-51" target="mAecj2PQC_2HCIfGibom-53">
          <mxGeometry relative="1" as="geometry">
            <mxPoint x="400" y="720" as="targetPoint" />
          </mxGeometry>
        </mxCell>
        <mxCell id="mAecj2PQC_2HCIfGibom-56" style="edgeStyle=orthogonalEdgeStyle;rounded=0;orthogonalLoop=1;jettySize=auto;html=1;" edge="1" parent="1" source="mAecj2PQC_2HCIfGibom-51">
          <mxGeometry relative="1" as="geometry">
            <mxPoint x="160" y="840" as="targetPoint" />
          </mxGeometry>
        </mxCell>
        <mxCell id="mAecj2PQC_2HCIfGibom-51" value="" style="html=1;points=[];perimeter=orthogonalPerimeter;fillColor=strokeColor;" vertex="1" parent="1">
          <mxGeometry x="152.5" y="680" width="15" height="80" as="geometry" />
        </mxCell>
        <mxCell id="mAecj2PQC_2HCIfGibom-54" value="Falha na Validação" style="edgeStyle=orthogonalEdgeStyle;rounded=0;orthogonalLoop=1;jettySize=auto;html=1;" edge="1" parent="1" source="mAecj2PQC_2HCIfGibom-53">
          <mxGeometry relative="1" as="geometry">
            <mxPoint x="720" y="720" as="targetPoint" />
          </mxGeometry>
        </mxCell>
        <mxCell id="mAecj2PQC_2HCIfGibom-57" style="edgeStyle=orthogonalEdgeStyle;rounded=0;orthogonalLoop=1;jettySize=auto;html=1;" edge="1" parent="1" source="mAecj2PQC_2HCIfGibom-53">
          <mxGeometry relative="1" as="geometry">
            <mxPoint x="400" y="840" as="targetPoint" />
          </mxGeometry>
        </mxCell>
        <mxCell id="mAecj2PQC_2HCIfGibom-53" value="" style="html=1;points=[];perimeter=orthogonalPerimeter;fillColor=strokeColor;" vertex="1" parent="1">
          <mxGeometry x="397.5" y="680" width="15" height="80" as="geometry" />
        </mxCell>
        <mxCell id="mAecj2PQC_2HCIfGibom-59" value="Exibir Mensagem de Erro" style="line;strokeWidth=2;html=1;" vertex="1" parent="1">
          <mxGeometry x="160" y="830" width="240" height="20" as="geometry" />
        </mxCell>
      </root>
    </mxGraphModel>
  </diagram>
</mxfile>
